<svg xmlns="http://www.w3.org/2000/svg" width="32" height="32" viewBox="0 0 32 32"><defs><style>.a{fill:#fff;}</style></defs><path class="a" d="M16,32A16,16,0,1,1,32,16,16,16,0,0,1,16,32ZM12.116,14.4,16,10.52l3.886,3.886,2.26-2.26L16,6,9.856,12.144l2.26,2.26ZM6,16l2.26,2.26L10.52,16,8.26,13.74Zm6.116,1.6L9.853,19.853l0,0L16,26l6.146-6.146h0l-2.26-2.26L16,21.48,12.116,17.6ZM21.48,16l2.26,2.26L26,16l-2.26-2.26Zm-3.188,0h0L16,13.706,14.305,15.4l-.195.195-.4.4,0,0,0,0L16,18.294,18.293,16h0Z"/></svg>