<svg xmlns="http://www.w3.org/2000/svg" width="32" height="32" viewBox="0 0 32 32"><defs><style>.a{fill:#fff;}</style></defs><path class="a" d="M16,32A16,16,0,1,1,32,16,16,16,0,0,1,16,32ZM10.572,11.547,8.1,22.831a.322.322,0,0,0,.155.363l7.573,4.745a.325.325,0,0,0,.173.05.317.317,0,0,0,.174-.05l7.573-4.745a.322.322,0,0,0,.154-.363l-2.47-11.284a.322.322,0,0,0-.058-.13l-5.11-6.982a.327.327,0,0,0-.525,0l-5.11,6.983a.322.322,0,0,0-.059.13Zm-1.4,9.367,1.767-8.07,1.01,3.171Zm-.216,1.68,3.257-5.748,1.83,5.747H8.96Zm.565.64h4.726l1.178,3.7-5.9-3.7Zm2.857-7.978L11.24,11.668,15.68,5.6V9.439ZM16,26.625l-1.08-3.392h2.16Zm.574.308,1.178-3.7h4.726Zm4.486-14.089,1.766,8.07-2.776-4.9,1.01-3.17Zm-1.44,2.412-3.3-5.816V5.6l4.44,6.065-1.144,3.588Zm3.422,7.337H17.96l1.83-5.747,3.256,5.747ZM16,10.166l3.356,5.921-2.072,6.506H14.72l-2.072-6.506L16,10.166Z"/></svg>