<?xml version="1.0" encoding="utf-8"?>
<!-- Generator: Adobe Illustrator 17.0.0, SVG Export Plug-In . SVG Version: 6.00 Build 0)  -->
<!DOCTYPE svg PUBLIC "-//W3C//DTD SVG 1.1//EN" "http://www.w3.org/Graphics/SVG/1.1/DTD/svg11.dtd">
<svg version="1.1" id="Layer_1" xmlns="http://www.w3.org/2000/svg" xmlns:xlink="http://www.w3.org/1999/xlink" x="0px" y="0px"
	 width="32px" height="32px" viewBox="0 0 32 32" enable-background="new 0 0 32 32" xml:space="preserve">
<path fill="#FFFFFF" d="M16,0C7.163,0,0,7.163,0,16s7.163,16,16,16s16-7.163,16-16S24.837,0,16,0z M9.466,22.098
	c-0.728-2.056-1.444-4.082-2.162-6.107c-0.628-1.771-1.255-3.543-1.89-5.311c-0.089-0.249-0.094-0.353,0.229-0.347
	c1.044,0.019,2.089,0.014,3.133,0.002c0.218-0.002,0.317,0.069,0.391,0.271c0.701,1.909,1.412,3.814,2.122,5.72
	c0.045,0.122,0.071,0.231,0.025,0.37c-0.588,1.771-1.166,3.546-1.749,5.319C9.558,22.033,9.529,22.045,9.466,22.098z M16.034,15.481
	c-0.133,0.386-0.236,0.672-0.331,0.962c-0.726,2.215-1.454,4.43-2.168,6.649c-0.085,0.263-0.197,0.361-0.481,0.353
	c-0.812-0.021-1.626-0.015-2.439-0.003c-0.262,0.004-0.37-0.02-0.27-0.331c1.344-4.168,2.678-8.339,4.007-12.512
	c0.061-0.192,0.142-0.267,0.348-0.265c0.942,0.01,1.884,0.008,2.826,0.001c0.192-0.001,0.295,0.043,0.364,0.247
	c0.674,2.015,1.361,4.027,2.045,6.039c0.043,0.125,0.059,0.25,0.017,0.379c-0.546,1.662-1.093,3.324-1.67,5.08
	C17.524,19.858,16.796,17.721,16.034,15.481z M25.844,12.837c-1.1,3.42-2.203,6.839-3.295,10.262
	c-0.08,0.251-0.18,0.343-0.452,0.338c-0.941-0.019-1.884-0.012-2.825-0.001c-0.259,0.003-0.332-0.048-0.243-0.322
	c1.35-4.151,2.69-8.306,4.035-12.459c0.045-0.138,0.056-0.308,0.279-0.307c1.082,0.005,2.165,0.002,3.296,0.002
	C26.368,11.199,26.107,12.018,25.844,12.837z"/>
</svg>
