<?xml version="1.0" encoding="utf-8"?>
<!-- Generator: Adobe Illustrator 17.0.0, SVG Export Plug-In . SVG Version: 6.00 Build 0)  -->
<!DOCTYPE svg PUBLIC "-//W3C//DTD SVG 1.1//EN" "http://www.w3.org/Graphics/SVG/1.1/DTD/svg11.dtd">
<svg version="1.1" id="Layer_1" xmlns="http://www.w3.org/2000/svg" xmlns:xlink="http://www.w3.org/1999/xlink" x="0px" y="0px"
	 width="32px" height="32px" viewBox="0 0 32 32" enable-background="new 0 0 32 32" xml:space="preserve">
<g>
	<polygon fill="#FFFFFF" points="11.026,13.125 11.026,18.875 16,21.75 20.975,18.875 20.975,13.125 16,10.25 	"/>
	<path fill="#FFFFFF" d="M16,0C7.163,0,0,7.163,0,16s7.163,16,16,16c8.837,0,16-7.163,16-16S24.837,0,16,0z M24.626,20.974
		l-1.826,1.05l-4.929,2.875l-1.826,1.05l-1.826-1.05L9.2,22.024l-1.826-1.05v-9.949L9.2,9.976l4.974-2.875L16,6.051l1.826,1.05
		L22.8,9.976l1.826,1.05V20.974z"/>
</g>
</svg>
