<svg xmlns="http://www.w3.org/2000/svg" width="32" height="32" viewBox="0 0 32 32"><defs><style>.a{fill:#fff;fill-rule:evenodd;}</style></defs><path class="a" d="M16,32A16,16,0,1,1,32,16,16,16,0,0,1,16,32ZM11.856,17.29a4.355,4.355,0,1,0,4.351,4.356,4.353,4.353,0,0,0-4.351-4.356Zm0,7.393a3.037,3.037,0,1,1,3.034-3.036,3.035,3.035,0,0,1-3.034,3.036ZM21.15,8A4.355,4.355,0,1,0,25.5,12.356,4.353,4.353,0,0,0,21.15,8Zm0,7.393a3.037,3.037,0,1,1,3.033-3.036,3.035,3.035,0,0,1-3.033,3.036ZM11.856,8a4.356,4.356,0,1,0,3.117,1.317h1.233V8h-4.35Zm3.034,4.355a3.034,3.034,0,1,1-3.034-3.036,3.035,3.035,0,0,1,3.034,3.036h0Z"/></svg>