<?xml version="1.0" encoding="utf-8"?>
<!-- Generator: Adobe Illustrator 17.0.0, SVG Export Plug-In . SVG Version: 6.00 Build 0)  -->
<!DOCTYPE svg PUBLIC "-//W3C//DTD SVG 1.1//EN" "http://www.w3.org/Graphics/SVG/1.1/DTD/svg11.dtd">
<svg version="1.1" id="Layer_1" xmlns="http://www.w3.org/2000/svg" xmlns:xlink="http://www.w3.org/1999/xlink" x="0px" y="0px"
	 width="32px" height="32px" viewBox="0 0 32 32" enable-background="new 0 0 32 32" xml:space="preserve">
<g>
	<path fill="#FFFFFF" d="M16,0C7.163,0,0,7.163,0,16s7.163,16,16,16c8.837,0,16-7.163,16-16S24.837,0,16,0z M25.245,5.927
		l-0.876,0.878c-4.736-4.341-11.995-4.341-16.732,0L6.741,5.927C11.967,1.095,20.018,1.095,25.245,5.927z M14.99,22.138v2.542
		h-1.541V22.1h-1.103h-2.008l0.306-1.846c0,0,1.141,0.018,1.121,0c0.002,0,0.004,0,0.005,0c0.301,0.018,0.56-0.211,0.579-0.512
		v-6.955c-0.062-0.426-0.449-0.726-0.876-0.679c0.018-0.021-1.121,0-1.121,0v-1.653h2.143h0.981v-2.54h1.532v2.49
		c0.412-0.015,0.826-0.015,1.232-0.015V7.916h1.541v2.525c1.994,0.187,3.57,0.802,3.745,2.633c0.134,1.34-0.429,2.145-1.325,2.601
		c1.474,0.354,2.397,1.232,2.213,3.198c-0.228,2.443-2.043,3.087-4.647,3.245v2.551h-1.544v-2.531H14.99z M5.944,6.746L6.82,7.624
		c-4.326,4.746-4.326,12.016,0,16.762l-0.876,0.907C1.124,20.054,1.124,11.984,5.944,6.746z M6.752,26.073l0.876-0.878
		c4.736,4.341,11.995,4.341,16.732,0l0.896,0.878C20.03,30.905,11.979,30.905,6.752,26.073z M26.056,25.254l-0.876-0.878
		c4.331-4.747,4.331-12.023,0-16.771l0.876-0.878v-0.02C30.876,11.946,30.876,20.016,26.056,25.254z"/>
	<path fill="#FFFFFF" d="M19.366,18.569c0-2.004-3.281-1.703-4.326-1.706v3.406C16.085,20.269,19.366,20.488,19.366,18.569z"/>
	<path fill="#FFFFFF" d="M18.65,13.768c0-1.826-2.738-1.551-3.608-1.551v3.093C15.912,15.31,18.65,15.523,18.65,13.768z"/>
</g>
</svg>
